{"title":"Little Big Soldier 2010 DVDRip Xvid BigPerm LKRG","uid":6398020,"size":1380394237,"categoryP":"video","categoryS":"movies","magnet":"?xt=urn:btih:f68fb7238574e248e4b8a643dbee5fdc2880f6ee&amp;dn=Little+Big+Soldier+2010+DVDRip+Xvid+BigPerm+LKRG&amp;tr=udp%3A%2F%2Ftracker.openbittorrent.com%3A80&amp;tr=udp%3A%2F%2Fopen.demonii.com%3A1337&amp;tr=udp%3A%2F%2Ftracker.coppersurfer.tk%3A6969&amp;tr=udp%3A%2F%2Fexodus.desync.com%3A6969","seeders":1,"leechers":0,"uploader":".BONE.","files":94,"time":1305578263,"description":"\nPLOT\n\nAn old soldier kidnaps a young general of an enemy state and takes him on a long journey to collect the reward.\n &lt;a href=&quot;\nhttp://www.imdb.com/title/tt1319718/&quot; rel=&quot;nofollow&quot; target=&quot;_NEW&quot;&gt;\nhttp://www.imdb.com/title/tt1319718/&lt;/a&gt;\n\nEncoded By .......: BigPerm1828\nRuntime ..........: 1h 35mn\nFile Size ........: 1.30 GiB\nResolution .......: 704x396\nIMDb URL .........: http://www.imdb.com/title/tt1319718/\nLanguage .........: Mandarin\nSubtitles ........: English\nVideo\nID : 0\nFormat : MPEG-4 Visual\nFormat profile : Advanced Simple@L5\nFormat settings, BVOP : Yes\nFormat settings, QPel : No\nFormat settings, GMC : No warppoints\nFormat settings, Matrix : Default (H.263)\nCodec ID : XVID\nCodec ID/Hint : XviD\nDuration : 1h 35mn\nBit rate : 71.5 Kbps\nWidth : 704 pixels\nHeight : 396 pixels\nDisplay aspect ratio : 16:9\nFrame rate : 29.970 fps\nColor space : YUV\nChroma subsampling : 4:2:0\nBit depth : 8 bits\nScan type : Progressive\nCompression mode : Lossy\nBits/(Pixel*Frame) : 0.009\nStream size : 48.8 MiB (4%)\nWriting library : XviD 1.2.1 (UTC 2008-12-04)\n\nAudio\nID : 1\nFormat : AC-3\nFormat/Info : Audio Coding 3\nCodec ID : 2000\nDuration : 1h 35mn\nBit rate mode : Constant\nBit rate : 448 Kbps\nChannel(s) : 6 channels\nSampling rate : 48.0 KHz\nBit depth : 16 bits\nCompression mode : Lossy\nStream size : 306 MiB (23%)\nAlignment : Aligned on interleaves\n &lt;a href=&quot;\nhttp://leetleech.org/images/17815141548391768111.png&quot; rel=&quot;nofollow&quot; target=&quot;_NEW&quot;&gt;\nhttp://leetleech.org/images/17815141548391768111.png&lt;/a&gt;\n &lt;a href=&quot;\nhttp://leetleech.org/images/99117434321222509971.png&quot; rel=&quot;nofollow&quot; target=&quot;_NEW&quot;&gt;\nhttp://leetleech.org/images/99117434321222509971.png&lt;/a&gt;\n &lt;a href=&quot;\nhttp://leetleech.org/images/82183945657644512165.png&quot; rel=&quot;nofollow&quot; target=&quot;_NEW&quot;&gt;\nhttp://leetleech.org/images/82183945657644512165.png&lt;/a&gt;\n &lt;a href=&quot;\nhttp://leetleech.org/images/42888804238046582343.png&quot; rel=&quot;nofollow&quot; target=&quot;_NEW&quot;&gt;\nhttp://leetleech.org/images/42888804238046582343.png&lt;/a&gt;\n &lt;a href=&quot;\nhttp://leetleech.org/images/01849716033586821765.png&quot; rel=&quot;nofollow&quot; target=&quot;_NEW&quot;&gt;\nhttp://leetleech.org/images/01849716033586821765.png&lt;/a&gt;","torrent":{"xt":"urn:btih:f68fb7238574e248e4b8a643dbee5fdc2880f6ee","amp;dn":"Little+Big+Soldier+2010+DVDRip+Xvid+BigPerm+LKRG","amp;tr":["udp%3A%2F%2Ftracker.openbittorrent.com%3A80","udp%3A%2F%2Fopen.demonii.com%3A1337","udp%3A%2F%2Ftracker.coppersurfer.tk%3A6969","udp%3A%2F%2Fexodus.desync.com%3A6969"],"infoHash":"f68fb7238574e248e4b8a643dbee5fdc2880f6ee","infoHashBuffer":{"type":"Buffer","data":[246,143,183,35,133,116,226,72,228,184,166,67,219,238,95,220,40,128,246,238]},"announce":[],"urlList":[]}}